# xmcd CD database file
#
# Track frame offsets:
#	150
#	16173
#	28040
#	48736
#	60473
#	78322
#	102436
#	121150
#	127917
#	141262
#	160829
#	173751
#	193395
#	217967
#
# Disc length: 3384 seconds
#
# Revision: 1
# Processed by: cddbd v1.5.2PL0 Copyright (c) Steve Scherf et al.
# Submitted via: CDex 1.51
#
DISCID=bc0d360e
DTITLE=Bleeding Through - The Truth
DYEAR=2006
DGENRE=Metal
TTITLE0=For Love And Failing
TTITLE1=Confession
TTITLE2=Love In Slow Motion
TTITLE3=The Painkiller
TTITLE4=Kill To Believe
TTITLE5=Dearly Demented
TTITLE6=Line In The Sand
TTITLE7=She's Gone
TTITLE8=Tragedy Of Empty Streets
TTITLE9=Return To Sender
TTITLE10=Hollywood Prison
TTITLE11=The Truth
TTITLE12=13 Scars
TTITLE13=Kill To Believe
EXTD=YEAR: 2006
EXTT0=
EXTT1=
EXTT2=
EXTT3=
EXTT4=
EXTT5=
EXTT6=
EXTT7=
EXTT8=
EXTT9=
EXTT10=
EXTT11=
EXTT12=
EXTT13=
PLAYORDER=
